<svg xmlns="http://www.w3.org/2000/svg" width="420" height="900" viewBox="0 0 420 900">
  <rect width="420" height="900" rx="28" fill="#0c0f15"/>
  <text x="24" y="44" fill="#f5f7fb" font-size="20" font-family="Arial,sans-serif">移动端图片选中状态</text>
  <rect x="24" y="78" width="372" height="205" rx="14" fill="#121722" stroke="#273044"/>
  <rect x="42" y="110" width="150" height="120" rx="12" fill="#496f36"/>
  <rect x="210" y="110" width="150" height="120" rx="12" fill="#496f36" stroke="#5b8cff" stroke-width="4"/>
  <rect x="201" y="101" width="18" height="18" fill="#5b8cff" stroke="#fff"/>
  <rect x="351" y="101" width="18" height="18" fill="#5b8cff" stroke="#fff"/>
  <rect x="0" y="296" width="420" height="320" fill="#1b2233"/>
  <text x="24" y="338" fill="#fff" font-size="22" font-family="Arial,sans-serif">图片操作</text>
  <text x="372" y="338" fill="#a7afbf" font-size="28" font-family="Arial,sans-serif">×</text>
  <g fill="#121722" stroke="#35405a">
    <rect x="24" y="365" width="82" height="84" rx="12"/><rect x="119" y="365" width="82" height="84" rx="12"/><rect x="214" y="365" width="82" height="84" rx="12"/><rect x="309" y="365" width="87" height="84" rx="12"/>
    <rect x="24" y="462" width="82" height="84" rx="12"/><rect x="119" y="462" width="82" height="84" rx="12"/>
    <rect x="24" y="565" width="64" height="38" rx="9"/><rect x="100" y="565" width="64" height="38" rx="9"/><rect x="176" y="565" width="64" height="38" rx="9"/><rect x="252" y="565" width="64" height="38" rx="9"/><rect x="328" y="565" width="68" height="38" rx="9"/>
  </g>
  <g fill="#c9cfda" font-size="12" font-family="Arial,sans-serif" text-anchor="middle">
    <text x="65" y="414">查看大图</text><text x="160" y="414">下载图片</text><text x="255" y="414">替换图片</text><text x="352" y="408">复制地址</text>
    <text x="65" y="511">删除图片</text><text x="160" y="511">编辑图片</text>
    <text x="56" y="589">25%</text><text x="132" y="589">50%</text><text x="208" y="589">75%</text><text x="284" y="589">100%</text><text x="362" y="589">原始</text>
  </g>
  <rect x="0" y="626" width="420" height="274" fill="#202020"/>
  <text x="24" y="667" fill="#fff" font-size="24" font-family="Arial,sans-serif">输入法被同时唤起</text>
  <g fill="#5d5d5d">
    <rect x="18" y="697" width="82" height="72" rx="10"/><rect x="110" y="697" width="82" height="72" rx="10"/><rect x="202" y="697" width="82" height="72" rx="10"/><rect x="294" y="697" width="108" height="72" rx="10"/>
    <rect x="18" y="780" width="82" height="72" rx="10"/><rect x="110" y="780" width="82" height="72" rx="10"/><rect x="202" y="780" width="82" height="72" rx="10"/><rect x="294" y="780" width="108" height="72" rx="10"/>
  </g>
  <path d="M392 285 L392 616" stroke="#ff7043" stroke-width="4"/>
  <text x="384" y="455" fill="#ff8a65" font-size="14" font-family="Arial,sans-serif" text-anchor="end" transform="rotate(-90 384 455)">操作面板过高，占用大部分可视区域</text>
</svg>